{"title":"Solitary-S04E005-Escape.From.Valcatraz.avi","uid":5405986,"size":394482162,"categoryP":"video","categoryS":"tv_shows","magnet":"?xt=urn:btih:633b8a4deae38c0d9ea3472a22f1a139f633852b&amp;dn=Solitary-S04E005-Escape.From.Valcatraz.avi&amp;tr=udp%3A%2F%2Ftracker.openbittorrent.com%3A80&amp;tr=udp%3A%2F%2Fopen.demonii.com%3A1337&amp;tr=udp%3A%2F%2Ftracker.coppersurfer.tk%3A6969&amp;tr=udp%3A%2F%2Fexodus.desync.com%3A6969","seeders":1,"leechers":0,"uploader":"pixiesmiles","files":-1,"time":1267593594,"description":"VAL gets naughty in this episode!  I laughed way too hard. ;o)\n\nEnjoy!\n\n\n\nFormat                           : AVI\nFormat/Info                      : Audio Video Interleave\nFile size                        : 376 MiB\nDuration                         : 45mn 12s\nOverall bit rate                 : 1 164 Kbps\nWriting application              : Lavf52.22.1\n\nVideo\nID                               : 0\nFormat                           : MPEG-4 Visual\nFormat profile                   : Simple@L1\nFormat settings, BVOP            : No\nFormat settings, QPel            : No\nFormat settings, GMC             : No warppoints\nFormat settings, Matrix          : Default (H.263)\nCodec ID                         : XVID\nCodec ID/Hint                    : XviD\nDuration                         : 45mn 12s\nBit rate                         : 1 024 Kbps\nWidth                            : 704 pixels\nHeight                           : 396 pixels\nDisplay aspect ratio             : 16:9\nFrame rate                       : 23.976 fps\nResolution                       : 8 bits\nColorimetry                      : 4:2:0\nScan type                        : Progressive\nBits/(Pixel*Frame)               : 0.153\nStream size                      : 331 MiB (88%)\nWriting library                  : Lavc52.0.0\n\nAudio\nID                               : 1\nFormat                           : MPEG Audio\nFormat version                   : Version 1\nFormat profile                   : Layer 3\nCodec ID                         : 55\nCodec ID/Hint                    : MP3\nDuration                         : 45mn 11s\nBit rate mode                    : Constant\nBit rate                         : 128 Kbps\nChannel(s)                       : 2 channels\nSampling rate                    : 44.1 KHz\nStream size                      : 41.4 MiB (11%)\nAlignment                        : Aligned on interleaves\nInterleave, duration             : 26 ms (0.63 video frame)\n\n","torrent":{"xt":"urn:btih:633b8a4deae38c0d9ea3472a22f1a139f633852b","amp;dn":"Solitary-S04E005-Escape.From.Valcatraz.avi","amp;tr":["udp%3A%2F%2Ftracker.openbittorrent.com%3A80","udp%3A%2F%2Fopen.demonii.com%3A1337","udp%3A%2F%2Ftracker.coppersurfer.tk%3A6969","udp%3A%2F%2Fexodus.desync.com%3A6969"],"infoHash":"633b8a4deae38c0d9ea3472a22f1a139f633852b","infoHashBuffer":{"type":"Buffer","data":[99,59,138,77,234,227,140,13,158,163,71,42,34,241,161,57,246,51,133,43]},"announce":[],"urlList":[]}}